# xmcd
#
# Track frame offsets:
#	150
#	12482
#	32070
#	47977
#	60982
#	75712
#	94532
#	107190
#	125747
#	144087
#	161347
#	179330
#	193070
#	207855
#	224085
#
# Disc length: 3174 seconds
#
# Revision: 2
# Processed by: cddbd v1.5.1PL2 Copyright (c) Steve Scherf et al.
# Submitted via: audiograbber 1.83.01
#
DISCID=d30c640f
DTITLE=Sound Choice - SC8180
DYEAR=1900
DGENRE=Karaoke Country
TTITLE0=Raye, Collin - I Want You Bad (And That Ain't Good)
TTITLE1=Alabama - Once Upon A Lifetime
TTITLE2=Loveless, Patty - Jealous Bone
TTITLE3=Mcentire, Reba - How Blue 
TTITLE4=Wariner, Steve - Drive
TTITLE5=Parnell, Lee Roy - I'm Holding My Own 
TTITLE6=Tucker, Tanya - It'S A Little Too Late
TTITLE7=Gill, Vince - Don'T Let Your Love Start Slippin' Away
TTITLE8=Lawrence, Tracy - Today's Lonley Fool
TTITLE9=Hody, Boy - She'd Give Anything
TTITLE10=Parton, Dolly - Silver And Gold
TTITLE11=Strait, George - Love Bug
TTITLE12=Chestnutt, Mark - Brother Jukebox
TTITLE13=Carpenter, Mary Chapin - Not Too Much To Ask
TTITLE14=Mattea, Kathy - Lonesome Standard Time
EXTD=
EXTT0=
EXTT1=
EXTT2=
EXTT3=
EXTT4=
EXTT5=
EXTT6=
EXTT7=
EXTT8=
EXTT9=
EXTT10=
EXTT11=
EXTT12=
EXTT13=
EXTT14=
PLAYORDER=
